<?xml version="1.0" standalone="no"?>
<!DOCTYPE svg PUBLIC "-//W3C//DTD SVG 20010904//EN"
 "http://www.w3.org/TR/2001/REC-SVG-20010904/DTD/svg10.dtd">
<svg version="1.0" xmlns="http://www.w3.org/2000/svg"
 width="8000.000000pt" height="8000.000000pt" viewBox="0 0 8000.000000 8000.000000"
 preserveAspectRatio="xMidYMid meet">
<metadata>
Created by potrace 1.16, written by Peter Selinger 2001-2019
</metadata>
<g transform="translate(0.000000,8000.000000) scale(0.100000,-0.100000)"
fill="#000000" stroke="none">
<path d="M27545 74859 c-948 -52 -1853 -351 -2649 -876 -322 -212 -558 -405
-837 -683 -205 -204 -342 -360 -501 -570 -535 -707 -897 -1570 -1022 -2435
-53 -362 -49 -159 -55 -3225 l-6 -2845 -187 -3 -188 -2 0 -2160 0 -2160 190 0
190 0 0 -920 0 -920 -190 0 -190 0 0 -2165 0 -2165 190 0 190 0 0 -18827 c0
-12684 3 -18874 10 -18968 70 -957 369 -1826 902 -2624 189 -282 384 -518 653
-787 445 -446 863 -748 1415 -1023 653 -326 1325 -504 2070 -551 230 -14
24710 -14 24940 0 1065 66 2049 426 2896 1057 394 294 793 694 1096 1098 610
815 972 1792 1048 2830 7 94 10 6204 10 18718 l0 18577 190 0 190 0 0 5495 0
5495 -187 2 -188 3 -6 2845 c-6 3066 -2 2863 -55 3225 -141 974 -563 1901
-1222 2685 -134 160 -462 486 -617 616 -930 775 -1998 1198 -3191 1264 -214
12 -24673 11 -24889 -1z m25025 -1352 c200 -24 408 -62 585 -107 1121 -286
2079 -1060 2599 -2099 211 -419 337 -843 403 -1346 17 -135 18 -1067 18
-27055 l0 -26915 -23 -170 c-106 -774 -385 -1432 -858 -2025 -132 -166 -448
-483 -609 -612 -663 -531 -1428 -829 -2275 -888 -201 -14 -24619 -14 -24820 0
-847 59 -1612 357 -2275 888 -161 129 -477 446 -609 612 -478 600 -767 1289
-863 2060 -17 140 -18 1159 -18 27050 0 21929 2 26925 13 27015 46 389 127
716 265 1070 68 175 233 500 337 663 703 1102 1870 1792 3165 1871 72 5 5685
8 12475 7 11681 -1 12353 -2 12490 -19z"/>
<path d="M35944 71911 c-460 -81 -866 -387 -1080 -814 -155 -307 -195 -693
-109 -1034 145 -571 619 -1008 1205 -1110 100 -17 279 -18 4040 -18 3761 0
3940 1 4040 18 660 115 1163 646 1241 1308 15 134 6 354 -20 477 -64 296 -197
539 -410 753 -228 227 -493 367 -799 419 -112 20 -187 20 -4060 19 -3739 -1
-3952 -2 -4048 -18z"/>
</g>
</svg>
