<svg xmlns="http://www.w3.org/2000/svg" width="64" height="64" viewBox="0 0 24 24" fill="none">
<rect width="24" height="24" rx="4" fill="#111"/>
<path fill="#fff" d="M12 .5C5.7.5.9 5.3.9 11.6c0 4.6 2.9 8.5 6.9 9.9.5.1.7-.2.7-.5v-1.8c-2.8.6-3.4-1.2-3.4-1.2-.5-1.3-1.2-1.7-1.2-1.7-1-.7.1-.7.1-.7 1.1.1 1.7 1.1 1.7 1.1 1 .1 1.6.7 2 1.1.1-.8.4-1.4.8-1.8-2.2-.2-4.5-1.1-4.5-5 0-1.1.4-2 1.1-2.8-.1-.3-.5-1.4.1-2.9 0 0 .9-.3 2.9 1.1.8-.2 1.6-.3 2.4-.3s1.6.1 2.4.3c1.9-1.4 2.9-1.1 2.9-1.1.6 1.5.2 2.6.1 2.9.7.8 1.1 1.7 1.1 2.8 0 3.9-2.3 4.7-4.5 5 .4.3.8 1 .8 2v3c0 .3.2.6.7.5 4-1.4 6.9-5.3 6.9-9.9C23.1 5.3 18.3.5 12 .5z"/>
</svg>